# xmcd CD database file
#
# Track frame offsets:
#	150
#	14495
#	34587
#	48405
#	50567
#	69395
#	85712
#	110400
#	128165
#	144105
#
# Disc length: 1974 seconds
#
# Revision: 0
# Processed by: cddbd v1.5.2PL0 Copyright (c) Steve Scherf et al.
# Submitted via: CDex 1.79
#
DISCID=7d07b40a
DTITLE=The Hayes - Springer Brotherhood -  Sneaker Waves
DYEAR=1987
DGENRE=Jazz
TTITLE0=Forget About The Day
TTITLE1=You're Too Much
TTITLE2=Love Is A Powerful Thing
TTITLE3=Sneaker Wave
TTITLE4=Lookin' For Love
TTITLE5=Foolish Pride
TTITLE6=Sad Eyes
TTITLE7=Follow Her Around
TTITLE8=Bad Bad Girl
TTITLE9=Sneaker Wave II
EXTD=YEAR: 1987
EXTT0=
EXTT1=
EXTT2=
EXTT3=
EXTT4=
EXTT5=
EXTT6=
EXTT7=
EXTT8=
EXTT9=
PLAYORDER=
